<?xml version="1.0" encoding="utf-8"?>
<!-- Generator: Adobe Illustrator 24.3.0, SVG Export Plug-In . SVG Version: 6.00 Build 0)  -->
<svg version="1.1" id="Layer_1" xmlns="http://www.w3.org/2000/svg" xmlns:xlink="http://www.w3.org/1999/xlink" x="0px" y="0px"
	 viewBox="0 0 240 240" style="enable-background:new 0 0 240 240;" xml:space="preserve">
<style type="text/css">
	.st0{fill:#46474A;}
	.st1{fill:#FFFFFF;}
	.st2{fill:#F284AB;}
	.st3{fill:#A05E78;}
	.st4{fill:#A05F78;}
	.st5{stroke:#000000;stroke-miterlimit:10;}
	.st6{fill:none;stroke:#000000;stroke-miterlimit:10;}
	.st7{fill:#E187B8;}
</style>
<rect class="st0" width="240" height="240"/>
<circle class="st1" cx="120" cy="107.27" r="43.73"/>
<path class="st1" d="M194.49,240H45.51c8.43-47.3,38.58-82.3,74.49-82.3S186.07,192.7,194.49,240z"/>
<path class="st2" d="M148.19,78.19c0.09,0.17,0.19,0.34,0.3,0.5c-1.51,1.2-2.83,2.08-3.97,2.68c0,0.01,0,0.01,0,0.01
	c-4.89,2.62-6.73,0.6-7.21-0.11c-2.29-3.36-4.69-13.54-0.88-18.83c3.81-5.29,12.06,6.69,12.06,6.69c-0.82,1.2-1.33,2.9-1.33,4.78
	c0,0.27,0.01,0.54,0.03,0.81c0.01,0.15,0.03,0.3,0.05,0.44c0.03,0.28,0.08,0.54,0.13,0.8c0.07,0.32,0.15,0.63,0.26,0.93
	c0.03,0.13,0.08,0.26,0.13,0.38c0.05,0.13,0.1,0.26,0.16,0.39c0.01,0.01,0.01,0.03,0.02,0.04c0.01,0.03,0.02,0.05,0.04,0.07
	C148.04,77.92,148.11,78.05,148.19,78.19z"/>
<path class="st2" d="M147.08,86.68c0,0.01,0,0.02-0.01,0.03c-0.06,0.17-0.13,0.34-0.2,0.51c-0.03,0.11-0.08,0.22-0.13,0.32
	c-2.38,5.71-5.73,9.01-5.73,9.01c0.94-2.47,0.04-5.64,0.04-5.64c-3.06,1.24-6.18,0-6.18,0c2.38-0.63,4.25-1.93,5.68-3.37
	c0,0,0.01,0,0.01-0.01c3.8-1.83,4.68-5.35,4.68-5.35c0.69-0.38,1.45-0.85,2.28-1.42C147.52,80.76,148.01,83.94,147.08,86.68z"/>
<path class="st2" d="M165.87,81.27c-0.56,0.82-2.91,3.37-9.63-1.41c-0.49-0.35-1.01-0.74-1.55-1.17v-0.24
	c0.15-0.24,0.28-0.5,0.4-0.77c0.03-0.07,0.07-0.15,0.1-0.23c0.23-0.54,0.41-1.14,0.52-1.79c0.04-0.17,0.06-0.34,0.08-0.52
	c0.03-0.23,0.05-0.47,0.07-0.71c0.01-0.17,0.01-0.35,0.01-0.52c0-1.76-0.45-3.36-1.18-4.54v-0.24c0,0,8.25-11.98,12.06-6.69
	C170.56,67.73,168.16,77.91,165.87,81.27z"/>
<path class="st2" d="M160.71,91.56c0,0-0.89,3.16,0.05,5.63c0,0-3.39-3.33-5.76-9.1c-1.24-4.55-1.07-7.33-1.07-7.33
	c0.27-0.24,0.53-0.54,0.76-0.92c0,0,0.46,0.34,1.19,0.8c0,0,0.48,3.28,3.04,4.68c1.49,2.32,4.04,5.19,7.98,6.24
	C166.9,91.56,163.78,92.79,160.71,91.56z"/>
<path class="st3" d="M165.87,81.27c-1.44,3.6-6.14,1.61-8.96-0.01c0.21,0.46,0.34,0.76,0.34,0.76s0.5,1.49,1.67,3.3
	c-2.56-1.4-3.04-4.68-3.04-4.68c-0.73-0.46-1.19-0.8-1.19-0.8c-0.23,0.38-0.49,0.68-0.76,0.92c0,0-0.17,2.78,1.07,7.33
	c-0.82-1.98-1.52-4.26-1.92-6.79c-1.62,0.66-3.51-0.27-4.36-0.78c-0.35,2.26-0.93,4.32-1.64,6.16c0.93-2.74,0.44-5.92,0.44-5.92
	c-0.83,0.57-1.59,1.04-2.28,1.42c0,0-0.88,3.52-4.68,5.35c1.65-1.65,2.72-3.47,3.33-4.7c-5.62,2.44-6.58-1.56-6.58-1.56
	c0.48,0.71,2.32,2.73,7.21,0.11c0,0,0,0,0-0.01c1.14-0.6,2.46-1.48,3.97-2.68c0.12,0.19,0.26,0.37,0.4,0.53v0.01
	c0.73,0.85,1.64,1.35,2.62,1.35c0.49,0,0.97-0.13,1.41-0.36c0.69-0.36,1.29-0.97,1.77-1.77v0.24c0.54,0.43,1.06,0.82,1.55,1.17
	C162.96,84.64,165.31,82.09,165.87,81.27z"/>
<g>
	<path class="st2" d="M155.87,73.91c0,0.17,0,0.35-0.01,0.52c-0.02,0.24-0.04,0.48-0.07,0.71c-0.02,0.17-0.05,0.35-0.08,0.52
		c-0.11,0.65-0.29,1.25-0.52,1.79c-0.03,0.08-0.07,0.16-0.1,0.23c-0.12,0.27-0.25,0.53-0.4,0.77c-0.48,0.8-1.08,1.41-1.77,1.77
		c-0.44,0.23-0.92,0.36-1.41,0.36c-0.98,0-1.89-0.5-2.62-1.35v-0.01c-0.14-0.16-0.28-0.34-0.4-0.53c-0.11-0.16-0.21-0.33-0.3-0.5
		c-0.08-0.14-0.15-0.27-0.21-0.42c-0.02-0.02-0.03-0.04-0.04-0.07c-0.01-0.01-0.01-0.03-0.02-0.04c-0.06-0.13-0.11-0.26-0.16-0.39
		c-0.05-0.12-0.1-0.25-0.13-0.38c-0.11-0.3-0.19-0.61-0.26-0.93c-0.05-0.26-0.1-0.52-0.13-0.8c-0.02-0.14-0.04-0.29-0.05-0.44
		c-0.02-0.27-0.03-0.54-0.03-0.81c0-1.88,0.51-3.58,1.33-4.78c0.77-1.17,1.84-1.89,3.02-1.89c1.26,0,2.39,0.82,3.18,2.13
		C155.42,70.55,155.87,72.15,155.87,73.91z"/>
	<path class="st4" d="M155.92,73.91c-0.01,0.99-0.16,1.97-0.43,2.92c-0.14,0.48-0.33,0.93-0.56,1.38c-0.2,0.46-0.48,0.88-0.81,1.27
		c-0.65,0.77-1.63,1.36-2.72,1.35c-1.09-0.01-2.07-0.63-2.75-1.4l-0.07-0.08l0-0.12l0-0.01l0.07,0.2c-0.18-0.24-0.39-0.47-0.54-0.73
		c-0.16-0.25-0.31-0.52-0.45-0.8l0.07,0.11c-0.05-0.06-0.09-0.13-0.12-0.2l0.08,0.13l-0.02-0.04l-0.07-0.1
		c-0.11-0.25-0.23-0.53-0.33-0.83l0.01,0.04c-0.58-1.71-0.69-3.52-0.36-5.28c0.17-0.88,0.46-1.75,0.92-2.55
		c0.45-0.78,1.07-1.55,1.95-2.01c0.86-0.48,1.98-0.57,2.89-0.18c0.92,0.38,1.58,1.1,2.04,1.87
		C155.67,70.42,155.93,72.2,155.92,73.91z M155.82,73.91c-0.01-1.7-0.58-3.4-1.6-4.68c-0.51-0.63-1.15-1.14-1.84-1.36
		c-0.69-0.23-1.44-0.16-2.07,0.2c-0.64,0.37-1.17,0.94-1.58,1.62c-0.42,0.67-0.72,1.43-0.91,2.22c-0.38,1.58-0.32,3.31,0.14,4.85
		l0.01,0.04c0.07,0.22,0.15,0.46,0.25,0.71l-0.07-0.1l0.02,0.04l0.09,0.18l-0.01-0.05c0-0.02-0.02-0.05-0.04-0.06l0.07,0.11
		c0.11,0.23,0.23,0.47,0.37,0.71c0.13,0.25,0.31,0.44,0.46,0.66l0.08,0.11l0,0.09l0,0.01l-0.07-0.2c0.58,0.71,1.4,1.25,2.31,1.29
		c0.9,0.07,1.8-0.39,2.46-1.06c0.67-0.68,1.14-1.56,1.48-2.47C155.69,75.87,155.8,74.88,155.82,73.91z"/>
</g>
<path class="st5" d="M114.68,99.71c0,3.72-3.01,6.73-6.72,6.73c-3.72,0-6.73-3.01-6.73-6.73H87.9c-0.65,0-1.17-0.52-1.17-1.17
	c0-0.66,0.52-1.18,1.17-1.18h26.35C114.53,98.09,114.68,98.88,114.68,99.71z"/>
<path class="st5" d="M151.85,99.71c0,3.72-3.01,6.73-6.72,6.73c-3.72,0-6.73-3.01-6.73-6.73h-13.33c-0.65,0-1.17-0.52-1.17-1.17
	c0-0.66,0.52-1.18,1.17-1.18h26.35C151.7,98.09,151.85,98.88,151.85,99.71z"/>
<path class="st6" d="M106.25,129.15l0.39,0.17c8.96,3.8,19.02,4.17,28.23,1.02h0"/>
<g>
	<g>
		<path class="st7" d="M98.33,113.25c-0.09,0.25-0.18,0.49-0.28,0.74c-0.01,0.03-0.16,0.38-0.09,0.22c-0.05,0.12-0.1,0.24-0.16,0.36
			c-0.22,0.48-0.45,0.95-0.7,1.41c-0.51,0.92-1.08,1.8-1.73,2.63c-0.32,0.42-0.08,1.14,0.36,1.37c0.53,0.28,1.03,0.09,1.37-0.36
			c1.36-1.76,2.41-3.73,3.16-5.83c0.18-0.49-0.2-1.12-0.7-1.23C99,112.42,98.52,112.72,98.33,113.25L98.33,113.25z"/>
	</g>
</g>
<g>
	<g>
		<path class="st7" d="M103.4,114.48c-1.18,3.03-2.92,5.86-5.08,8.29c-0.36,0.4-0.4,1.02,0,1.41c0.36,0.36,1.05,0.41,1.41,0
			c2.4-2.71,4.28-5.8,5.59-9.17c0.2-0.5-0.22-1.1-0.7-1.23C104.07,113.63,103.6,113.97,103.4,114.48L103.4,114.48z"/>
	</g>
</g>
<g>
	<g>
		<path class="st7" d="M106.56,116.84c-0.18,0.86-0.44,1.7-0.77,2.52c-0.03,0.07-0.02,0.05,0.02-0.04
			c-0.02,0.05-0.05,0.11-0.07,0.16c-0.05,0.11-0.1,0.21-0.15,0.31c-0.09,0.19-0.19,0.39-0.29,0.58c-0.21,0.39-0.44,0.77-0.69,1.15
			c-0.29,0.44-0.1,1.13,0.36,1.37c0.5,0.27,1.06,0.11,1.37-0.36c1.04-1.55,1.78-3.32,2.15-5.15c0.1-0.51-0.15-1.1-0.7-1.23
			C107.29,116.03,106.67,116.3,106.56,116.84L106.56,116.84z"/>
	</g>
</g>
<g>
	<g>
		<path class="st7" d="M136.52,113.85c-0.09,0.25-0.18,0.49-0.28,0.74c-0.01,0.03-0.16,0.38-0.09,0.22
			c-0.05,0.12-0.1,0.24-0.16,0.36c-0.22,0.48-0.45,0.95-0.7,1.41c-0.51,0.92-1.08,1.8-1.73,2.63c-0.32,0.42-0.08,1.14,0.36,1.37
			c0.53,0.28,1.03,0.09,1.37-0.36c1.36-1.76,2.41-3.73,3.16-5.83c0.18-0.49-0.2-1.12-0.7-1.23
			C137.19,113.02,136.71,113.32,136.52,113.85L136.52,113.85z"/>
	</g>
</g>
<g>
	<g>
		<path class="st7" d="M141.59,115.08c-1.18,3.03-2.92,5.86-5.08,8.29c-0.36,0.4-0.4,1.02,0,1.41c0.36,0.36,1.05,0.41,1.41,0
			c2.4-2.71,4.28-5.8,5.59-9.17c0.2-0.5-0.22-1.1-0.7-1.23C142.26,114.23,141.79,114.58,141.59,115.08L141.59,115.08z"/>
	</g>
</g>
<g>
	<g>
		<path class="st7" d="M144.75,117.45c-0.18,0.86-0.44,1.7-0.77,2.52c-0.03,0.07-0.02,0.05,0.02-0.04
			c-0.02,0.05-0.05,0.11-0.07,0.16c-0.05,0.11-0.1,0.21-0.15,0.31c-0.09,0.19-0.19,0.39-0.29,0.58c-0.21,0.39-0.44,0.77-0.69,1.15
			c-0.29,0.44-0.1,1.13,0.36,1.37c0.5,0.27,1.06,0.11,1.37-0.36c1.04-1.55,1.78-3.32,2.15-5.15c0.1-0.51-0.15-1.1-0.7-1.23
			C145.48,116.64,144.86,116.9,144.75,117.45L144.75,117.45z"/>
	</g>
</g>
</svg>
