<?xml version="1.0" encoding="utf-8"?>
<!-- Generator: Adobe Illustrator 24.3.0, SVG Export Plug-In . SVG Version: 6.00 Build 0)  -->
<svg version="1.1" id="Layer_2" xmlns="http://www.w3.org/2000/svg" xmlns:xlink="http://www.w3.org/1999/xlink" x="0px" y="0px"
	 viewBox="0 0 240 240" style="enable-background:new 0 0 240 240;" xml:space="preserve">
<style type="text/css">
	.st0{fill:#492F12;}
	.st1{fill:#477769;}
	.st2{fill:#DC8728;}
	.st3{fill:#A64425;}
	.st4{fill:#FFF6E2;}
	.st5{fill:#794617;}
	.st6{fill:#AD6927;}
</style>
<path class="st0" d="M55.84,74.53l0.19-33.08c0-0.8,0.44-1.53,1.13-1.92l18.25-10.19c0.64-0.36,1.4-0.48,2.12-0.34l24.84,4.83
	l12.53-7.3c0.57-0.33,1.23-0.45,1.87-0.34l26.6,4.53c0.48,0.08,0.84,0.5,0.84,0.99v7.95l10.86-6.33c0.55-0.32,1.2-0.43,1.83-0.3
	l27.17,5.54c0.6,0.12,1.03,0.65,1.03,1.26v36.17c0,0,22.24,7.17,34.1,18.91c0,0-0.59-5.7-3.1-12c0,0-1.42-5.11,3.43-2.24
	c4.85,2.87,9.43,16.15,8.44,32.97c0,0,3.61-4.74,6.45-11.44c0.13-0.32,0.35-0.59,0.63-0.79c0.94-0.65,3.05-1.57,3.55,2.94
	c0.64,5.84-6.82,18.89-8.6,20.72c0,0-0.25,11.27-4.65,21.76c0,0,0.49,0.84,10.63-7.07c0,0,4.2-1.88,2.23,3.61
	c0,0-2.97,7.22-20.62,17.06c0,0-9.33,14.8-24.3,24.43c-14.97,9.63-21.3,13.98-48.33,19.71s-57.1-2.57-59.8-3.36
	c-2.7-0.79-21.49-5.87-37.05-18c0,0-26.84-10.15-29.93-18.26c0,0-0.87-3.38,2.18-2.14l8.82,4.01c0,0-5.92-8.31-9.23-15.87
	c0,0-15.17-10.76-18.37-20.96c-0.2-0.63-0.27-1.31-0.21-1.97c0.13-1.42,0.73-3.37,3.33-1.07l7.42,7.32c0,0-3.1-9.23-1.42-20.6
	c0,0-7.2-11-7.17-23.67c0-0.66,0.23-1.3,0.64-1.82c1-1.27,2.94-3.13,3.99-0.03c0,0,4.81,13.71,5.47,14.24
	c0,0,4.22-23.01,17.34-29.08c0,0,3.43-0.92,2.57,1.78l-7.45,14.9C26.09,89.98,34.1,81.77,55.84,74.53z"/>
<path class="st1" d="M62.55,128.62l0.2-78.46c0,0,6.33,4.29,16.15,2.31v81.16C78.9,133.63,67.43,130.99,62.55,128.62z"/>
<path class="st2" d="M107.25,57.74v10.41c-12.92,5.44-22.13-2.32-22.13-2.32l-0.02-9.94C85.1,55.89,94.73,62.42,107.25,57.74z"/>
<path class="st2" d="M107.25,74.71v43.45c0,0-10.74,5.58-22.05-2.47L85.13,73.1C95.77,79.92,107.25,74.71,107.25,74.71z"/>
<path class="st2" d="M107.25,124.23v13.29c0,0-18.85-1.32-22.02-2.64l-0.02-11.79C85.21,123.09,97.09,129.87,107.25,124.23z"/>
<path class="st3" d="M113.67,137.83H120V55.09c0-1.18,0.64-2.26,1.67-2.83l16.81-9.35c0.27-0.15,0.3-0.53,0.05-0.71
	c-0.49-0.36-1.23-0.84-1.77-0.85c-0.8-0.02-19.42,11.11-22.62,13.02c-0.29,0.17-0.47,0.49-0.47,0.82V137.83z"/>
<path class="st3" d="M126.35,137.65c0,0,11.89-0.13,21.52-1.52l0.08-71.75c0,0-10.15,4.32-21.6-1.39V137.65z"/>
<path class="st3" d="M154.2,135.16c0,0,13.25-1.8,24.07-7.07l0.07-80.55l-24,13.82L154.2,135.16z"/>
<path class="st4" d="M78.55,34.67l16.14,2.75l-12.64,7.81c-0.83,0.51-1.75,0.86-2.71,1.02c-3.32,0.55-11.16,1.29-16.2-2.75
	l14.23-8.6C77.73,34.68,78.15,34.6,78.55,34.67z"/>
<path class="st4" d="M86.86,49.82c0,0,6.84,4.77,17.56,2.56c0.46-0.09,0.9-0.27,1.3-0.51l29.24-17.08l-16.92-2.9
	c-0.35-0.06-0.7,0.01-1.01,0.18L86.86,49.82z"/>
<path class="st4" d="M127.64,56.41l29.17-17.34c0.31-0.18,0.67-0.24,1.02-0.17l16.54,3.27l-28.75,16.46c-0.61,0.35-1.29,0.57-2,0.65
	C140.64,59.63,132.4,60.18,127.64,56.41z"/>
<path class="st5" d="M55.69,104.05v-6.49c0,0-19.34,7.88-13.45,19.1C42.24,116.66,42.34,108.51,55.69,104.05z"/>
<path class="st5" d="M185.22,100.94c0,0,11.7,7.66,9.48,15.87c0,0-1.05-5.98-9.48-9.54V100.94z"/>
<path class="st6" d="M185.25,89.62v-6.7c0,0,37.68,10.36,35.31,33.11s-29.37,36.3-37.68,38.47c0,0,7.78-8.05,10.67-14.88
	c0.35-0.82,0.54-1.71,0.44-2.6c-0.16-1.27-0.92-2.45-3.89,0.27c0,0-24.63,27.94-50.09,30.66c0,0-14.71,1.95-19.09,1.67
	c-0.91-0.06-1.83,0-2.7,0.27c-1.67,0.53-3.28,1.6,1.42,3.35c7.17,2.67,19.53,0.89,20.18,1.34c0,0-11.81,5.75-23.18,9.32
	c-1.05,0.33-2.15,0.4-3.23,0.22c-5.95-0.98-26.5-5.01-43-16.33c0,0,16.35,1.85,25.45,0.2c0,0,6.53-1.98-0.59-3.43
	c0,0-22.6-0.86-54.13-16.48c0,0-6.3-3.82-4.26,1.09c0,0,3.53,7.15,14.08,12.69c0,0-15.63-1.12-25.62-14.57c0,0-7.91-10.19-8.31-26.7
	c0,0,20.47,25.02,39.26,25.71c0,0,9.73,0.33,0.03-4.19c0,0-23.37-8.47-37.65-30.86c0,0,2.21-18.36,37.02-30.13v7.12
	c0,0-20.08,6.63-24.13,19.48s17.31,26.31,41.93,31.35s66.66,11.37,109.19-5.44c0,0,28.08-10.46,23.14-27.4
	C205.82,106.23,203.15,95.85,185.25,89.62z"/>
<path class="st0" d="M160.2,147.57c0,0,9-4.12,5.64,0.99c-3.36,5.11-22.12,12.89-34.98,13.68c-12.46,0.77-26.58,3.08-48.22-6.04
	c-1.69-0.71-3.27-1.67-4.59-2.94c-1.82-1.75-2.86-3.7,4.58-1.7c11.9,3.2,25.15,5.87,44.34,4.29
	C146.15,154.26,160.2,147.57,160.2,147.57z"/>
<path class="st6" d="M61.1,170.05c0,0,8.54,7.68,29.11,15.89c0,0-34.62,0.69-53.9-21.36C36.31,164.58,49.1,170.56,61.1,170.05z"/>
<path class="st6" d="M96.11,194.35c0,0,4.29,2.84,9.17,4.25c0,0-11.84-0.63-21.96-5.04L96.11,194.35z"/>
<path class="st6" d="M116.98,191.15c0,0,24.37,4.1,40.45-0.43c16.15-4.55,20.24-9.89,20.24-9.89s3.36-4.05-1.05-3
	c-0.85,0.2-1.66,0.55-2.42,0.99c-3.16,1.84-16.02,8.15-42.36,7.13c0,0,16.27-7.27,23.14-11.87c0,0,30.2-0.03,47.8-6.56
	c0,0-7.32,10.42-29.27,20.9c0,0-13.09,6.69-28.73,9.09c-1.65,0.25-3.3,0.54-4.94,0.83c-2.18,0.39-5.95,0.78-9.68-0.23
	c0,0-10.52-1.55-19.52-4.78L116.98,191.15z"/>
<path class="st6" d="M213.79,153.68c0,0,6.97-10.61,8.51-20.35c0,0-12.91,22.85-52.07,32.34
	C170.22,165.67,198.31,166.61,213.79,153.68z"/>
</svg>
