<?xml version="1.0" encoding="utf-8"?>
<!-- Generator: Adobe Illustrator 24.3.0, SVG Export Plug-In . SVG Version: 6.00 Build 0)  -->
<svg version="1.1" id="Layer_1" xmlns="http://www.w3.org/2000/svg" xmlns:xlink="http://www.w3.org/1999/xlink" x="0px" y="0px"
	 viewBox="0 0 240 240" style="enable-background:new 0 0 240 240;" xml:space="preserve">
<style type="text/css">
	.st0{fill:#46474A;}
	.st1{fill:#FFFFFF;}
	.st2{fill:none;stroke:#000000;stroke-miterlimit:10;}
</style>
<rect y="-0.15" class="st0" width="240.68" height="240"/>
<path class="st1" d="M164.4,107.12c0,0.73-0.02,1.47-0.06,2.19c-1.13,23.13-20.24,41.54-43.66,41.54s-42.53-18.41-43.67-41.54
	c-0.04-0.72-0.06-1.46-0.06-2.19c0-0.65,0.01-1.29,0.05-1.93c0.05-1.39,0.18-2.76,0.36-4.11c0.2-1.4,0.45-2.77,0.78-4.12
	c0.33-1.4,0.73-2.77,1.2-4.11c0.47-1.4,1.03-2.78,1.65-4.11c6.95-14.97,22.11-25.34,39.69-25.34s32.74,10.37,39.68,25.34
	c0.62,1.33,1.18,2.71,1.65,4.11c0.47,1.34,0.87,2.71,1.2,4.11c0.33,1.35,0.58,2.72,0.78,4.12c0.18,1.35,0.31,2.72,0.36,4.11
	C164.39,105.83,164.4,106.47,164.4,107.12z"/>
<path class="st1" d="M195.17,239.85H46.18c8.43-47.3,38.58-82.3,74.49-82.3S186.74,192.55,195.17,239.85z"/>
<path class="st2" d="M106.37,129l0.39,0.17c8.96,3.8,19.02,4.17,28.23,1.02h0"/>
<rect x="94.44" y="88.74" width="5.83" height="4.11"/>
<rect x="100.27" y="88.74" width="5.83" height="4.11"/>
<rect x="106.1" y="88.74" width="5.83" height="4.11"/>
<rect x="111.93" y="88.74" width="5.83" height="4.11"/>
<rect x="117.76" y="88.74" width="5.83" height="4.11"/>
<rect x="129.42" y="88.74" width="5.83" height="4.11"/>
<rect x="135.25" y="88.74" width="5.83" height="4.11"/>
<rect x="141.08" y="88.74" width="5.83" height="4.11"/>
<rect x="146.91" y="88.74" width="5.83" height="4.11"/>
<rect x="152.74" y="88.74" width="5.83" height="4.11"/>
<path d="M82.78,92.85v4.11h-4.64c0.33-1.4,0.73-2.77,1.2-4.11H82.78z"/>
<rect x="82.78" y="92.85" width="5.83" height="4.11"/>
<rect x="88.61" y="92.85" width="5.83" height="4.11"/>
<rect x="94.44" y="92.85" width="5.83" height="4.11"/>
<rect x="100.27" y="92.85" width="5.83" height="4.11"/>
<rect x="106.1" y="92.85" width="5.83" height="4.11"/>
<rect x="111.93" y="92.85" width="5.83" height="4.11"/>
<rect x="117.76" y="92.85" width="5.83" height="4.11"/>
<rect x="123.59" y="92.85" width="5.83" height="4.11"/>
<rect x="129.42" y="92.85" width="5.83" height="4.11"/>
<rect x="135.25" y="92.85" width="5.83" height="4.11"/>
<rect x="141.08" y="92.85" width="5.83" height="4.11"/>
<rect x="146.91" y="92.85" width="5.83" height="4.11"/>
<rect x="152.74" y="92.85" width="5.83" height="4.11"/>
<path d="M163.21,96.96h-4.64v-4.11h3.44C162.48,94.19,162.88,95.56,163.21,96.96z"/>
<rect x="94.44" y="96.96" width="5.83" height="4.11"/>
<rect x="100.27" y="96.96" width="5.83" height="4.11"/>
<rect x="106.1" y="96.96" width="5.83" height="4.11"/>
<rect x="111.93" y="96.96" width="5.83" height="4.11"/>
<rect x="117.76" y="96.96" width="5.83" height="4.11"/>
<rect x="129.42" y="96.96" width="5.83" height="4.11"/>
<rect x="135.25" y="96.96" width="5.83" height="4.11"/>
<rect x="141.08" y="96.96" width="5.83" height="4.11"/>
<rect x="146.91" y="96.96" width="5.83" height="4.11"/>
<rect x="152.74" y="96.96" width="5.83" height="4.11"/>
<rect x="100.27" y="101.08" width="5.83" height="4.11"/>
<rect x="106.1" y="101.08" width="5.83" height="4.11"/>
<rect x="111.93" y="101.08" width="5.83" height="4.11"/>
<rect x="117.76" y="101.08" width="5.83" height="4.11"/>
<rect x="129.42" y="101.08" width="5.83" height="4.11"/>
<rect x="135.25" y="101.08" width="5.83" height="4.11"/>
<rect x="141.08" y="101.08" width="5.83" height="4.11"/>
<rect x="146.91" y="101.08" width="5.83" height="4.11"/>
<rect x="106.1" y="105.19" width="5.83" height="4.11"/>
<rect x="111.93" y="105.19" width="5.83" height="4.11"/>
<rect x="135.25" y="105.19" width="5.83" height="4.11"/>
<rect x="141.08" y="105.19" width="5.83" height="4.11"/>
</svg>
